<svg width="6862" height="6862" viewBox="0 0 6862 6862" fill="none" xmlns="http://www.w3.org/2000/svg">
<path d="M1516.87 6202.47L1091 1425.76H5770.67L5344.33 6201.71L3427.98 6733L1516.87 6202.47Z" fill="#E44D26"/>
<path d="M3430.84 6327.21L4979.26 5897.94L5343.57 1817.02H3430.84V6327.21Z" fill="#F16529"/>
<path d="M3430.83 3588.55H2655.53L2601.98 2988.71H3430.83V2402.95H3428.81H1961.66L1975.69 2560.09L2119.69 4174.29H3430.83V3588.55Z" fill="#EBEBEB"/>
<path d="M3430.84 5109.6L3428.27 5110.29L2775.65 4934.08L2733.92 4466.77H2416.81H2145.67L2227.77 5386.78L3428.14 5719.98L3430.84 5719.23V5109.6Z" fill="#EBEBEB"/>
<path d="M1526.81 128H1824.53V422.228H2096.84V128H2394.57V1019H2096.86V720.634H1824.54V1019H1526.84V128H1526.81Z" fill="black"/>
<path d="M2785.52 423.466H2523.38V128H3345.61V423.466H3083.33V1019H2785.54V423.466H2785.52Z" fill="black"/>
<path d="M3476.36 128H3786.7L3977.59 441.067L4168.28 128H4478.73V1019H4182.34V577.369L3977.58 894.172H3972.46L3767.56 577.369V1019H3476.35V128H3476.36Z" fill="black"/>
<path d="M4626.9 128H4924.79V724.488H5343.57V1019H4626.9V128Z" fill="black"/>
<path d="M3428.9 3588.36V4174.22H4150.24L4082.24 4934.07L3428.9 5110.44V5719.97L4629.8 5387.1L4638.62 5288.12L4776.27 3745.68L4790.57 3588.36H4632.72H3428.9Z" fill="white"/>
<path d="M3428.9 2402.95V2766.25V2986.47V2987.91H4841.82H4843.69L4855.45 2856.42L4882.14 2559.88L4896.14 2402.95H3428.9Z" fill="white"/>
</svg>
