<svg width="6415" height="6415" viewBox="0 0 6415 6415" fill="none" xmlns="http://www.w3.org/2000/svg">
<path d="M3789.79 383.197C4197.51 257.224 4642.26 223.704 5056.78 336.094C5388.7 425.261 5689.72 624.846 5897.42 898.701C5981.33 1012.41 6000.39 1158.53 6006.53 1295.9C6014.41 1541.27 5971.91 1784.89 5916.7 2023.26C5765.09 2650.28 5493.86 3244.43 5149.01 3788.41C5342.25 3871.23 5558.93 3829.82 5758.3 3794.33C5841.33 3777.9 5948.47 3757.96 6011.35 3830.7C6072.47 3910.01 6013.76 4011 5951.75 4069.28C5661.9 4352.56 5223.06 4426.82 4835.06 4361.32C4795.84 4707.91 4754.65 5054.72 4700.54 5399.56C4670.52 5592.13 4606.33 5792.81 4455.6 5925.58C4313.85 6049.58 4127.18 6104.13 3945.78 6138.53C3760.87 6170.73 3553.17 6144.22 3407.48 6017.15C3253.02 5880.45 3165.17 5678.01 3145.67 5474.7C3106.45 5127.67 3104.7 4777.8 3105.79 4428.8C2939.07 4572.52 2717.35 4646.35 2497.82 4629.7C2342.93 4616.77 2171.38 4592.45 2055.05 4479.4C1990.63 4420.47 1994.14 4308.74 2065.78 4257.47C2190 4163.71 2355.2 4170.93 2496.07 4116.6C2600.58 4085.93 2654.69 3984.28 2720.42 3906.28C2599.04 3897.3 2480.3 3866.41 2370.97 3812.73C2203.59 3991.07 2042.12 4175.32 1885.25 4363.29C1794.55 4471.96 1660.69 4563.75 1512.58 4545.79C1346.08 4525.41 1222.29 4394.84 1129.18 4265.36C945.801 4001.8 832.533 3697.71 729.342 3395.82C572.913 2911.64 450.004 2415.2 378.801 1910.87C343.527 1530.98 373.542 1117.13 594.822 793.103C769.873 533.269 1076.16 391.741 1381.13 359.974C1791.26 317.034 2205.56 400.724 2590.72 539.404C2911.68 325.14 3319.84 295.564 3689.88 370.709C3722.97 374.872 3756.05 389.989 3789.79 383.197ZM4091.04 488.357C4170.78 543.566 4260.39 581.906 4340.36 636.896C4668.55 856.637 4924.45 1176.72 5085.26 1536.23C5129.73 1640.08 5175.52 1749.4 5166.32 1865.08C5168.29 2101.25 5087.45 2331.51 5111.55 2568.34C5134.55 2819.19 5188.67 3075.74 5124.69 3325.05C5106.73 3413.34 5060.5 3491.78 5028.73 3575.03C5031.14 3587.08 5035.74 3611.18 5038.15 3623.01C5068.39 3584.01 5095.77 3542.82 5120.97 3500.32C5375.99 3068.29 5578.86 2604.27 5712.51 2120.09C5782.4 1858.51 5837.17 1589.69 5833.88 1317.81C5829.06 1203.67 5819.64 1079.01 5745.59 986.115C5590.26 791.569 5383.44 637.991 5150.55 549.701C4814.25 423.07 4440.04 413.431 4091.04 488.357ZM3121.35 521.22C2861.07 555.178 2617.23 695.829 2460.14 906.588C2246.31 1189.86 2152.98 1546.97 2125.81 1895.97C2340.74 1795.63 2582.83 1701.64 2822.95 1762.11C2978.94 1799.57 3096.15 1935.84 3130.33 2089.86C3200.44 2398.55 3238.34 2723.89 3169.77 3036.52C3116.97 3289.12 2962.95 3507.55 2911.9 3760.59C2976.97 3765.85 3044.89 3770.23 3102.95 3802.87C3222.79 3868.16 3291.8 4008.16 3284.35 4142.67C3275.37 4487.07 3275.81 4831.69 3293.99 5175.65C3304.73 5318.06 3308.67 5462.65 3346.35 5601.11C3397.84 5766.3 3512.42 5935.65 3694.27 5967.64C3885.75 5997 4083.59 5942.66 4253.82 5856.13C4420.11 5768.49 4494.81 5581.4 4523.3 5405.47C4583.55 5038.29 4625.17 4668.25 4667.46 4298.66C4685.64 4166.77 4659.79 4021.96 4733.4 3903.21C4775.47 3826.97 4858.06 3791.26 4932.12 3753.8C4870.11 3674.27 4804.61 3596.94 4755.97 3508.21C4572.81 3130.07 4324.8 2772.52 4248.34 2351.88C4215.48 2174.86 4234.32 1964.32 4380.67 1840.98C4541.92 1702.3 4768.24 1710.41 4967.83 1717.42C4847.77 1378.06 4624.95 1076.16 4342.99 853.351C4001.87 584.754 3550.76 466.668 3121.35 521.22ZM1291.3 550.139C1052.5 594.832 825.084 731.54 703.27 946.023C540.488 1229.3 522.742 1570.41 551.223 1888.52C608.405 2306.53 707.871 2717.75 825.741 3122.4C930.903 3464.39 1045.92 3808.79 1236.53 4113.75C1307.08 4217.6 1387.7 4333.28 1514.34 4369.86C1622.57 4392.21 1708.45 4303.04 1771.98 4228.12C1915.93 4050.44 2073.45 3884.81 2221.99 3711.08C2003.78 3512.81 1885.91 3210.69 1925.56 2916.9C1957.11 2691.9 1963.03 2464.05 1949.23 2237.3C1925.35 1915.47 1971.14 1589.47 2071.26 1283.19C2144.87 1053.81 2270.85 844.368 2432.75 666.472C2065.78 554.521 1673.61 476.527 1291.3 550.139ZM4504.24 1964.76C4393.38 2051.52 4399.07 2209.48 4421.64 2334.36C4501.39 2726.74 4730.33 3063.03 4907.36 3415.32C5039.47 3149.79 4958.19 2848.77 4937.81 2568.78C4915.25 2342.46 4984.48 2122.06 4991.49 1897.28C4828.92 1887.21 4644.89 1864.86 4504.24 1964.76ZM2119.68 2109.58C2123.4 2298.21 2136.77 2487.06 2123.84 2675.69C2118.14 2842.41 2069.29 3009.79 2106.75 3176.08C2161.52 3470.31 2424.43 3731.45 2733.56 3728.39C2778.91 3580.07 2831.5 3433.72 2896.35 3292.63C3082.13 2926.76 3052.12 2496.92 2955.06 2110.45C2928.55 2001.57 2826.46 1923.36 2715.82 1918.54C2502.21 1906.27 2296.04 1995.65 2119.68 2109.58ZM4905.39 3966.53C4847.77 4019.99 4851.71 4105.21 4851.05 4177.29C4978.34 4220.89 5115.27 4216.28 5247.16 4200.51C5446.32 4179.04 5648.97 4112.44 5795.11 3970.25C5555.86 3999.17 5294.27 4057.01 5069.26 3938.49C5016.25 3901.68 4951.18 3932.79 4905.39 3966.53ZM2639.36 4242.14C2505.93 4321.01 2344.02 4315.97 2205.56 4380.16C2486.21 4523.22 2874.66 4473.05 3068.77 4210.15C3168.23 4117.7 3072.05 3922.28 2940.6 3940.9C2819.88 4019.55 2768.62 4172.69 2639.36 4242.14Z" fill="white"/>
<path d="M4556.17 2017.37C4635.92 1960.4 4746.56 1956.24 4834.63 1997.21C4831.34 2108.72 4697.7 2188.91 4600.21 2131.51C4559.89 2113.32 4509.28 2055.92 4556.17 2017.37Z" fill="white"/>
<path d="M2615.27 2023.87C2698.52 2001.52 2798.21 2012.26 2866.78 2067.91C2914.76 2106.9 2870.94 2171.53 2829.32 2194.98C2734.89 2264.64 2584.81 2196.51 2565.53 2084.56C2560.06 2051.69 2588.32 2033.29 2615.27 2023.87Z" fill="white"/>
<path d="M4091.04 488.323C4440.05 413.397 4814.25 423.036 5150.55 549.667C5383.44 637.957 5590.26 791.535 5745.6 986.081C5819.65 1078.97 5829.07 1203.63 5833.89 1317.77C5837.18 1589.66 5782.4 1858.47 5712.51 2120.06C5578.87 2604.23 5375.99 3068.25 5120.98 3500.29C5095.78 3542.79 5068.39 3583.98 5038.16 3622.97C5035.75 3611.14 5031.15 3587.04 5028.74 3574.99C5060.51 3491.74 5106.74 3413.31 5124.7 3325.02C5188.67 3075.7 5134.56 2819.15 5111.56 2568.3C5087.46 2331.47 5168.3 2101.22 5166.33 1865.05C5175.53 1749.37 5129.74 1640.05 5085.26 1536.2C4924.45 1176.68 4668.56 856.603 4340.36 636.862C4260.4 581.872 4170.79 543.532 4091.04 488.323Z" fill="#326690"/>
<path d="M3121.35 521.158C3550.77 466.606 4001.87 584.692 4342.99 853.289C4624.96 1076.1 4847.77 1377.99 4967.83 1717.35C4768.24 1710.34 4541.92 1702.24 4380.68 1840.92C4234.32 1964.26 4215.48 2174.8 4248.35 2351.82C4324.81 2772.46 4572.82 3130.01 4755.97 3508.15C4804.61 3596.87 4870.12 3674.21 4932.12 3753.74C4858.07 3791.2 4775.47 3826.91 4733.41 3903.15C4659.79 4021.9 4685.65 4166.71 4667.46 4298.6C4625.18 4668.19 4583.55 5038.23 4523.3 5405.41C4494.82 5581.33 4420.11 5768.43 4253.82 5856.07C4083.59 5942.6 3885.75 5996.94 3694.27 5967.58C3512.43 5935.59 3397.84 5766.24 3346.36 5601.05C3308.67 5462.59 3304.73 5318 3294 5175.59C3275.81 4831.63 3275.37 4487.01 3284.36 4142.61C3291.81 4008.09 3222.79 3868.1 3102.95 3802.81C3044.89 3770.17 2976.98 3765.79 2911.91 3760.53C2962.95 3507.49 3116.97 3289.06 3169.77 3036.46C3238.35 2723.83 3200.45 2398.49 3130.34 2089.8C3096.16 1935.78 2978.95 1799.51 2822.96 1762.05C2582.83 1701.58 2340.74 1795.57 2125.82 1895.91C2152.98 1546.91 2246.31 1189.8 2460.15 906.526C2617.23 695.767 2861.08 555.116 3121.35 521.158Z" fill="#326690"/>
<path d="M1291.31 550.102C1673.62 476.49 2065.79 554.484 2432.76 666.436C2270.86 844.332 2144.88 1053.78 2071.27 1283.16C1971.14 1589.44 1925.35 1915.43 1949.23 2237.27C1963.04 2464.02 1957.12 2691.86 1925.57 2916.86C1885.92 3210.66 2003.79 3512.77 2222 3711.04C2073.46 3884.78 1915.93 4050.4 1771.99 4228.08C1708.46 4303.01 1622.57 4392.17 1514.34 4369.83C1387.71 4333.24 1307.09 4217.56 1236.54 4113.72C1045.93 3808.75 930.911 3464.35 825.749 3122.36C707.879 2717.72 608.413 2306.5 551.231 1888.48C522.749 1570.38 540.495 1229.26 703.278 945.986C825.091 731.503 1052.51 594.795 1291.31 550.102Z" fill="#326690"/>
<path d="M4504.25 1964.74C4644.9 1864.84 4828.93 1887.19 4991.5 1897.26C4984.49 2122.04 4915.26 2342.44 4937.82 2568.76C4958.2 2848.75 5039.48 3149.77 4907.37 3415.3C4730.35 3063.01 4501.4 2726.72 4421.65 2334.34C4399.08 2209.46 4393.39 2051.5 4504.25 1964.74ZM4556.17 2017.32C4509.29 2055.88 4559.89 2113.28 4600.21 2131.46C4697.7 2188.86 4831.34 2108.68 4834.63 1997.17C4746.56 1956.2 4635.92 1960.36 4556.17 2017.32Z" fill="#326690"/>
<path d="M2119.68 2109.54C2296.04 1995.62 2502.21 1906.23 2715.82 1918.5C2826.46 1923.32 2928.55 2001.53 2955.06 2110.42C3052.12 2496.88 3082.13 2926.72 2896.35 3292.59C2831.5 3433.68 2778.92 3580.03 2733.56 3728.35C2424.43 3731.42 2161.52 3470.27 2106.75 3176.04C2069.29 3009.75 2118.14 2842.37 2123.84 2675.65C2136.77 2487.02 2123.4 2298.17 2119.68 2109.54ZM2615.26 2023.88C2588.31 2033.3 2560.05 2051.7 2565.52 2084.56C2584.8 2196.52 2734.88 2264.65 2829.31 2194.98C2870.93 2171.54 2914.75 2106.91 2866.77 2067.91C2798.19 2012.27 2698.51 2001.53 2615.26 2023.88Z" fill="#326690"/>
<path d="M3791.12 207.022C4165.32 108.873 4561.21 67.0278 4944.18 139.764C5291.87 202.422 5622.69 365.639 5874.43 615.175C5985.72 726.689 6098.77 848.499 6140.62 1004.93C6215.55 1273.74 6185.75 1558.33 6140.62 1829.56C6021.87 2480.24 5764.88 3099.15 5435.81 3670.74C5583.92 3670.74 5726.32 3623.63 5873.11 3613.99C6017.05 3604.57 6170.85 3693.08 6205.47 3838.99C6248.85 3994.32 6151.14 4144.83 6036.77 4241.23C5745.6 4500.41 5341.6 4586.07 4961.05 4564.16C4938.26 4956.98 4930.38 5365.35 4764.53 5729.9C4690.47 5892.46 4573.7 6037.5 4420.56 6131.48C4273.99 6222.84 4103.75 6266 3935.93 6297.99C3752.34 6331.07 3550.99 6313.1 3392.59 6207.51C3246.24 6114.4 3154.44 5957.75 3101.86 5796.07C2971.94 5458.02 2984.87 5089.52 2969.53 4733.51C2711.89 4837.14 2418.75 4836.92 2157.37 4747.09C2065.57 4715.11 1984.51 4659.46 1914.84 4592.42C1780.32 4704.15 1594.97 4761.55 1422.99 4712.92C1204.12 4653.33 1049.22 4469.73 932.887 4285.05C731.106 3953.35 604.473 3582.88 492.738 3212.85C369.391 2785.42 264.667 2351.19 208.142 1909.52C176.374 1516.92 211.647 1096.94 423.506 754.512C593.738 474.085 892.356 286.769 1211.57 224.33C1663.99 132.315 2130.42 221.263 2564.44 356.876C2704.87 293.779 2845.09 224.768 2998.89 199.793C3260.26 146.774 3529.3 171.093 3791.12 207.022ZM3789.8 383.165C3756.06 389.957 3722.98 374.84 3689.9 370.678C3319.86 295.532 2911.69 325.108 2590.73 539.372C2205.57 400.692 1791.28 317.002 1381.14 359.943C1076.17 391.71 769.885 533.238 594.833 793.071C373.554 1117.1 343.539 1530.95 378.812 1910.84C450.016 2415.17 572.924 2911.61 729.354 3395.79C832.544 3697.68 945.813 4001.77 1129.19 4265.33C1222.3 4394.81 1346.09 4525.38 1512.59 4545.76C1660.7 4563.72 1794.56 4471.93 1885.26 4363.26C2042.13 4175.29 2203.6 3991.04 2370.98 3812.7C2480.31 3866.38 2599.05 3897.27 2720.43 3906.25C2654.7 3984.24 2600.59 4085.9 2496.08 4116.57C2355.21 4170.9 2190.02 4163.67 2065.79 4257.44C1994.15 4308.71 1990.65 4420.44 2055.06 4479.37C2171.39 4592.42 2342.94 4616.74 2497.84 4629.67C2717.36 4646.32 2939.08 4572.48 3105.81 4428.77C3104.71 4777.77 3106.46 5127.64 3145.68 5474.67C3165.18 5677.98 3253.03 5880.41 3407.49 6017.12C3553.18 6144.19 3760.88 6170.7 3945.79 6138.5C4127.2 6104.1 4313.86 6049.55 4455.61 5925.55C4606.34 5792.78 4670.54 5592.1 4700.55 5399.53C4754.67 5054.69 4795.85 4707.88 4835.07 4361.29C5223.08 4426.79 5661.91 4352.52 5951.77 4069.25C6013.77 4010.97 6072.48 3909.98 6011.36 3830.67C5948.48 3757.93 5841.34 3777.87 5758.31 3794.3C5558.94 3829.79 5342.26 3871.2 5149.03 3788.38C5493.87 3244.4 5765.1 2650.24 5916.71 2023.23C5971.92 1784.86 6014.42 1541.24 6006.54 1295.87C6000.4 1158.5 5981.34 1012.37 5897.43 898.669C5689.74 624.815 5388.71 425.23 5056.79 336.063C4642.27 223.673 4197.52 257.192 3789.8 383.165Z" fill="black"/>
<path d="M4905.4 3966.47C4951.19 3932.74 5016.26 3901.63 5069.28 3938.43C5294.28 4056.96 5555.87 3999.12 5795.12 3970.2C5648.99 4112.38 5446.33 4178.99 5247.18 4200.46C5115.29 4216.23 4978.36 4220.83 4851.07 4177.23C4851.72 4105.15 4847.78 4019.93 4905.4 3966.47Z" fill="#326690"/>
<path d="M2639.37 4242.1C2768.63 4172.65 2819.9 4019.51 2940.62 3940.86C3072.07 3922.24 3168.25 4117.66 3068.78 4210.12C2874.67 4473.02 2486.23 4523.19 2205.57 4380.13C2344.04 4315.93 2505.94 4320.97 2639.37 4242.1Z" fill="#326690"/>
</svg>
