<svg width="1011" height="1011" viewBox="0 0 1011 1011" fill="none" xmlns="http://www.w3.org/2000/svg">
<g clip-path="url(#clip0)">
<path d="M905.18 196.609C844.083 117.496 760.897 58.2785 666.142 26.4455C571.388 -5.38739 469.321 -8.40565 372.851 17.7726C276.381 43.9508 189.841 98.1496 124.176 173.514C58.511 248.879 16.6703 342.024 3.94579 441.17C-8.77877 540.315 8.18437 641.007 52.6899 730.512C97.1954 820.016 167.244 894.312 253.977 944.002C340.71 993.693 440.23 1016.55 539.952 1009.67C639.675 1002.8 735.119 966.508 814.214 905.388C920.249 823.449 989.4 702.75 1006.46 569.834C1023.52 436.919 987.087 302.669 905.18 196.609V196.609Z" fill="#FF6C37"/>
<path d="M675.643 322.112L462.546 536.893L402.323 474.986C612.051 265.258 633.108 284.209 675.643 322.112V322.112Z" fill="white"/>
<path d="M462.557 542.787C460.669 542.739 458.867 541.988 457.504 540.681L396.859 480.037C395.496 478.624 394.733 476.736 394.733 474.772C394.733 472.809 395.496 470.921 396.859 469.508C603.639 262.728 631.856 272.415 680.708 316.634C681.525 317.288 682.179 318.123 682.618 319.073C683.056 320.024 683.268 321.063 683.235 322.109C683.392 323.126 683.28 324.167 682.911 325.127C682.542 326.087 681.927 326.935 681.129 327.584L468.032 540.681C466.539 542.051 464.583 542.803 462.557 542.787V542.787ZM412.863 474.983L462.557 524.678L664.704 322.53C657.725 313.785 647.767 307.919 636.734 306.054C625.701 304.189 614.368 306.457 604.903 312.423C568.263 328.847 509.304 378.963 412.863 474.983V474.983Z" fill="#FF6C37"/>
<path d="M523.632 596.268L465.515 536.887L678.612 326.317C735.887 382.329 650.816 475.822 523.632 596.268Z" fill="white"/>
<path d="M523.63 603.854C521.765 603.705 519.995 602.968 518.576 601.749L459.195 543.631C458.306 541.473 458.306 539.051 459.195 536.893C458.551 535.125 458.551 533.187 459.195 531.418L672.292 318.321C673.775 316.93 675.733 316.155 677.767 316.155C679.801 316.155 681.758 316.93 683.242 318.321C690.146 324.671 695.601 332.435 699.235 341.083C702.869 349.731 704.596 359.061 704.299 368.437C704.299 425.291 639.443 496.885 529.105 601.328C527.632 602.785 525.694 603.679 523.63 603.854V603.854ZM476.462 536.893L524.051 584.482C608.279 504.887 688.716 422.764 689.138 367.174C689.596 355.386 685.698 343.843 678.188 334.746L476.462 536.893Z" fill="#FF6C37"/>
<path d="M404.023 476.247L446.137 518.361C446.405 518.598 446.621 518.89 446.768 519.216C446.916 519.543 446.992 519.897 446.992 520.256C446.992 520.614 446.916 520.969 446.768 521.296C446.621 521.622 446.405 521.914 446.137 522.151L357.276 541.102C355.484 541.483 353.617 541.27 351.958 540.494C350.299 539.719 348.937 538.423 348.08 536.805C347.223 535.186 346.917 533.332 347.209 531.523C347.5 529.715 348.373 528.051 349.695 526.784L401.496 475.405C401.496 475.405 403.18 475.404 404.023 476.247Z" fill="white"/>
<path d="M355.184 549.523C352.377 549.488 349.625 548.735 347.192 547.334C344.759 545.933 342.726 543.932 341.287 541.522C339.665 538.468 339.076 534.972 339.607 531.555C340.139 528.139 341.762 524.987 344.235 522.57L395.614 470.77C397.467 469.113 399.866 468.196 402.352 468.196C404.838 468.196 407.237 469.113 409.09 470.77L451.204 512.884C452.432 514.05 453.316 515.53 453.762 517.164C454.207 518.797 454.197 520.521 453.731 522.149C453.248 523.809 452.329 525.309 451.07 526.494C449.811 527.679 448.258 528.505 446.572 528.887L357.711 547.839L355.184 549.523ZM402.352 485.51L354.763 533.099L433.516 516.253L402.352 485.51Z" fill="#FF6C37"/>
<path d="M788.955 203.77C777.986 193.184 764.274 185.878 749.37 182.678C734.465 179.478 718.963 180.511 704.615 185.661C690.267 190.812 677.646 199.873 668.18 211.822C658.713 223.77 652.778 238.129 651.046 253.274C649.314 268.419 651.853 283.747 658.377 297.525C664.901 311.302 675.15 322.98 687.964 331.237C700.778 339.494 715.647 344.001 730.889 344.249C746.131 344.497 761.139 340.475 774.215 332.639L716.94 275.364L788.955 203.77Z" fill="white"/>
<path d="M732.083 352.01C714.571 351.779 697.513 346.404 683.034 336.552C668.554 326.7 657.292 312.808 650.648 296.603C644.005 280.399 642.274 262.599 645.671 245.418C649.068 228.237 657.443 212.435 669.754 199.978C686.608 183.414 709.294 174.133 732.925 174.133C756.556 174.133 779.242 183.414 796.096 199.978C796.893 200.65 797.534 201.489 797.974 202.434C798.414 203.38 798.642 204.41 798.642 205.453C798.642 206.496 798.414 207.526 797.974 208.472C797.534 209.418 796.893 210.256 796.096 210.928L727.871 275.362L779.671 326.32C780.508 327.124 781.137 328.119 781.503 329.219C781.87 330.32 781.964 331.493 781.777 332.637C781.651 333.741 781.284 334.804 780.702 335.75C780.119 336.696 779.336 337.502 778.408 338.112C764.494 346.821 748.492 351.622 732.083 352.01V352.01ZM732.083 188.607C717.478 188.682 703.221 193.069 691.101 201.219C678.982 209.368 669.54 220.917 663.961 234.414C658.382 247.911 656.915 262.756 659.744 277.084C662.573 291.412 669.571 304.585 679.861 314.95C690.327 325.471 703.726 332.587 718.304 335.367C732.881 338.148 747.958 336.462 761.562 330.532L711.868 280.837C711.05 280.184 710.396 279.348 709.958 278.398C709.519 277.448 709.308 276.409 709.341 275.362C709.371 274.387 709.613 273.43 710.049 272.558C710.485 271.685 711.106 270.918 711.868 270.309L777.566 204.19C764.512 194.171 748.538 188.698 732.083 188.607V188.607Z" fill="#FF6C37"/>
<path d="M790.2 205.03L718.186 276.624L775.461 333.899C781.227 330.592 786.597 326.635 791.464 322.107C806.477 306.238 814.737 285.157 814.501 263.313C814.266 241.469 805.552 220.572 790.2 205.03V205.03Z" fill="white"/>
<path d="M774.216 340.221C773.27 340.272 772.324 340.109 771.449 339.744C770.575 339.38 769.793 338.823 769.163 338.115L711.888 280.84C711.07 280.187 710.416 279.352 709.978 278.401C709.539 277.451 709.328 276.412 709.361 275.366C709.391 274.391 709.633 273.434 710.069 272.561C710.505 271.689 711.126 270.921 711.888 270.312L783.481 199.982C784.173 198.939 785.112 198.084 786.214 197.492C787.316 196.901 788.548 196.591 789.799 196.591C791.049 196.591 792.281 196.901 793.383 197.492C794.485 198.084 795.424 198.939 796.116 199.982V199.982C804.52 208.216 811.196 218.045 815.754 228.892C820.312 239.739 822.66 251.387 822.66 263.153C822.66 274.918 820.312 286.566 815.754 297.413C811.196 308.26 804.52 318.089 796.116 326.324C791.164 331.587 785.492 336.124 779.27 339.8C777.705 340.593 775.891 340.744 774.216 340.221V340.221ZM727.891 275.366L775.48 322.954C778.751 320.66 781.848 318.126 784.745 315.374C798.732 301.422 806.609 282.488 806.644 262.731C806.668 245.055 800.227 227.979 788.535 214.721L727.891 275.366Z" fill="#FF6C37"/>
<path d="M684.497 330.953C678.796 325.593 671.265 322.609 663.44 322.609C655.615 322.609 648.084 325.593 642.383 330.953L451.606 521.308L483.192 553.315L684.918 376.436C688.002 373.492 690.45 369.947 692.109 366.02C693.768 362.092 694.604 357.866 694.564 353.603C694.525 349.34 693.611 345.13 691.879 341.234C690.148 337.338 687.635 333.839 684.497 330.953V330.953Z" fill="white"/>
<path d="M481.52 560.897C479.632 560.849 477.83 560.098 476.467 558.791L444.46 526.784C443.096 525.371 442.334 523.484 442.334 521.52C442.334 519.556 443.096 517.669 444.46 516.256L635.236 326.322C642.501 319.07 652.346 314.996 662.611 314.996C672.875 314.996 682.72 319.07 689.985 326.322V326.322C693.738 330.064 696.683 334.536 698.639 339.462C700.595 344.387 701.52 349.662 701.356 354.959C701.14 360.228 699.875 365.401 697.633 370.174C695.391 374.948 692.218 379.225 688.3 382.755L486.574 559.633C485.108 560.674 483.304 561.125 481.52 560.897V560.897ZM459.2 521.31L480.257 542.788L678.193 370.541C680.621 368.441 682.586 365.86 683.964 362.96C685.341 360.06 686.101 356.905 686.194 353.696C686.32 350.471 685.745 347.258 684.509 344.277C683.273 341.296 681.406 338.619 679.035 336.429C674.616 332.032 668.635 329.563 662.4 329.563C656.165 329.563 650.184 332.032 645.765 336.429L459.2 521.31Z" fill="#FF6C37"/>
<path d="M303.803 738.195C303.256 738.924 302.961 739.811 302.961 740.722C302.961 741.633 303.256 742.52 303.803 743.249L312.226 779.888C312.578 782.022 312.265 784.214 311.328 786.164C310.391 788.114 308.876 789.728 306.989 790.786C305.102 791.844 302.935 792.296 300.783 792.079C298.63 791.862 296.597 790.988 294.959 789.574L237.263 733.984L417.089 552.894H479.418L521.532 595.008C455.835 652.455 382.577 700.632 303.803 738.195V738.195Z" fill="white"/>
<path d="M300.007 800.106C295.239 800.016 290.699 798.049 287.372 794.632L232.203 739.462C231.386 738.809 230.732 737.974 230.293 737.023C229.854 736.073 229.643 735.034 229.676 733.988C229.706 733.012 229.948 732.056 230.384 731.183C230.821 730.31 231.441 729.543 232.203 728.934L413.293 547.423C414.309 546.346 415.633 545.61 417.083 545.317H479.833C481.468 544.739 483.252 544.739 484.887 545.317L527.001 587.431C527.803 588.17 528.413 589.092 528.78 590.119C529.147 591.146 529.259 592.247 529.107 593.327C529.14 594.373 528.928 595.412 528.49 596.363C528.051 597.313 527.397 598.148 526.58 598.802L523.211 601.75C457.243 656.746 384.667 703.291 307.166 740.305L315.168 774.417C315.798 777.05 315.829 779.791 315.26 782.438C314.691 785.085 313.536 787.57 311.879 789.712C310.223 791.853 308.107 793.596 305.688 794.812C303.269 796.028 300.608 796.686 297.901 796.737L300.007 800.106ZM248.628 733.988L298.322 784.103C298.785 784.517 299.385 784.747 300.007 784.747C300.628 784.747 301.228 784.517 301.691 784.103C302 783.674 302.166 783.158 302.166 782.629C302.166 782.1 302 781.585 301.691 781.155L293.268 744.516C292.612 741.886 292.882 739.11 294.032 736.655C295.183 734.201 297.144 732.217 299.585 731.04V731.04C375.003 694.523 445.71 648.987 510.155 595.432L475.622 560.899H419.189L248.628 733.988Z" fill="#FF6C37"/>
<path d="M193.875 777.358L235.989 735.244L300.845 800.1L197.666 792.94C195.887 792.811 194.196 792.121 192.835 790.969C191.474 789.817 190.514 788.263 190.092 786.53C189.671 784.798 189.81 782.976 190.49 781.328C191.17 779.68 192.355 778.29 193.875 777.358V777.358Z" fill="white"/>
<path d="M302.1 806.42L199.342 799.26C196.353 798.98 193.503 797.863 191.118 796.04C188.733 794.216 186.909 791.758 185.855 788.946C184.801 786.135 184.559 783.084 185.156 780.142C185.754 777.2 187.167 774.485 189.235 772.308V772.308L231.349 730.194C232.762 728.83 234.649 728.068 236.613 728.068C238.577 728.068 240.464 728.83 241.877 730.194L306.312 794.628C307.202 795.852 307.681 797.326 307.681 798.839C307.681 800.353 307.202 801.827 306.312 803.051C305.34 804.627 303.852 805.818 302.1 806.42ZM199.342 782.836L283.57 788.311L237.245 744.933L199.342 782.836Z" fill="#FF6C37"/>
<path d="M485.298 557.944L400.228 571L449.501 522.147L485.298 557.944Z" fill="white"/>
<path d="M400.238 579.005C398.824 579.047 397.43 578.669 396.231 577.92C395.032 577.17 394.081 576.082 393.5 574.794C392.609 573.57 392.13 572.095 392.13 570.582C392.13 569.069 392.609 567.594 393.5 566.371L442.352 517.097C443.835 515.706 445.793 514.931 447.827 514.931C449.86 514.931 451.818 515.706 453.301 517.097L489.098 552.894C489.808 554.031 490.184 555.344 490.184 556.685C490.184 558.025 489.808 559.338 489.098 560.475C488.777 561.873 488.043 563.142 486.992 564.119C485.941 565.095 484.621 565.733 483.202 565.949L398.974 579.005H400.238ZM449.511 533.101L422.137 560.475L469.305 553.315L449.511 533.101Z" fill="#FF6C37"/>
<path d="M485.29 557.944L425.91 565.525C424.32 565.887 422.656 565.727 421.165 565.069C419.673 564.411 418.434 563.289 417.63 561.871C416.826 560.453 416.501 558.813 416.703 557.195C416.905 555.577 417.623 554.068 418.75 552.89L449.494 522.147L485.29 557.944Z" fill="white"/>
<path d="M424.229 573.53C421.476 573.506 418.778 572.753 416.411 571.347C414.044 569.942 412.091 567.934 410.752 565.529C409.145 562.646 408.522 559.319 408.979 556.05C409.435 552.782 410.944 549.752 413.279 547.42L444.022 516.676C445.506 515.285 447.463 514.51 449.497 514.51C451.531 514.51 453.489 515.285 454.972 516.676L490.769 552.473C491.832 553.483 492.58 554.779 492.921 556.204C493.263 557.63 493.184 559.124 492.694 560.506C492.203 561.887 491.323 563.097 490.159 563.989C488.995 564.88 487.598 565.415 486.136 565.529L427.177 573.109L424.229 573.53ZM424.229 557.948L468.87 552.473L449.076 532.68L423.808 557.948H424.229Z" fill="#FF6C37"/>
<path d="M790.636 253.461C789.843 252.133 788.591 251.143 787.116 250.677C785.641 250.211 784.047 250.303 782.635 250.934C781.94 251.29 781.323 251.78 780.819 252.376C780.315 252.972 779.934 253.662 779.699 254.407C779.464 255.151 779.379 255.935 779.449 256.712C779.52 257.49 779.743 258.245 780.108 258.936C781.554 261.978 782.123 265.363 781.751 268.711C781.379 272.059 780.081 275.237 778.002 277.887C777.454 278.399 777.017 279.019 776.718 279.707C776.419 280.395 776.265 281.138 776.265 281.888C776.265 282.638 776.419 283.381 776.718 284.069C777.017 284.757 777.454 285.377 778.002 285.889C779.086 286.312 780.288 286.312 781.371 285.889C782.35 286.141 783.38 286.117 784.347 285.82C785.313 285.522 786.178 284.963 786.846 284.204C790.313 279.959 792.509 274.82 793.179 269.38C793.85 263.94 792.968 258.421 790.636 253.461V253.461Z" fill="#FF6C37"/>
</g>
<defs>
<clipPath id="clip0">
<rect width="1011" height="1011" fill="white"/>
</clipPath>
</defs>
</svg>
