<svg width="5835" height="5835" viewBox="0 0 5835 5835" fill="none" xmlns="http://www.w3.org/2000/svg">
<path d="M5116.99 5082.9C5116.99 5432.11 4833.93 5715.07 4484.94 5715.07H718V752.149C718 403.059 1001.02 120 1350.11 120H5117V5082.9H5116.99Z" fill="#80152A"/>
<path d="M5015.58 5023.5C5015.58 5359.53 4763.33 5611.92 4427.06 5611.92H819.396V811.643C819.396 475.497 1071.61 223.227 1407.93 223.227H5015.58V5023.5V5023.5Z" fill="url(#paint0_linear)"/>
<path d="M1738.31 228.139L1751.84 1451.1L843.002 1755.39L1738.31 228.139Z" fill="#8A2034"/>
<path d="M1738.31 228.139L1751.84 1451.1L2951.26 951.134L1738.31 228.139Z" fill="url(#paint1_linear)"/>
<path d="M1241.7 2657.42L1751.84 1451.09L843.002 1755.37L1241.7 2657.42Z" fill="#AE2338"/>
<path d="M1241.7 2657.45L1745.1 3883.9L832.932 3589.95L1241.7 2657.45Z" fill="url(#paint2_linear)"/>
<path d="M1739.99 5603.56L1745.1 3883.86L832.932 3589.91L1739.99 5603.56Z" fill="#8A2034"/>
<path d="M1739.99 5603.56L832.932 5603.76V3589.91L1739.99 5603.56Z" fill="#8C2033"/>
<path d="M1739.98 5603.57L1745.09 3883.88L2949.09 4379.29L1739.98 5603.57Z" fill="url(#paint3_linear)"/>
<path d="M4154 234.893L4167.48 1457.97L2951.26 951.141L4154 234.893Z" fill="url(#paint4_linear)"/>
<path d="M4154 234.893L4167.48 1457.97L5012.33 1758.76L4154 234.893Z" fill="url(#paint5_linear)"/>
<path d="M4663.35 2671.66L4167.48 1457.95L5012.33 1758.73L4663.35 2671.66Z" fill="url(#paint6_linear)"/>
<path d="M4663.35 2671.68L4164.23 3878.66L5010.59 3576.46L4663.35 2671.68Z" fill="url(#paint7_linear)"/>
<path d="M4174.24 5600.31L4164.23 3878.65L5010.59 3576.45L4174.24 5600.31Z" fill="url(#paint8_linear)"/>
<path d="M4174.25 5600.32L4164.24 3878.66L2949.92 4378.86L4174.25 5600.32Z" fill="url(#paint9_linear)"/>
<path d="M4174.24 5600.33L1740.37 5603.8L2949.92 4378.87L4174.24 5600.33Z" fill="url(#paint10_linear)"/>
<path d="M3074.53 3032.84L3348.23 3158.26L3320.39 2963.2L3070.71 2828.97L3074.53 3032.84ZM998.455 3686.2L1354.9 3726.79L1432.63 3395.53L1091.36 3334.93L998.455 3686.2ZM2266.24 1392.12L2033.16 1219.69L1870.97 1440.2L2126.88 1599.9L2266.24 1392.12ZM2980.8 811.748L2831.33 616.693L2621.05 740.816L2795.87 930.972L2980.8 811.748ZM3751.05 674.903L3702.97 515.431L3449.61 495.084L3523.04 669.898L3751.05 674.903ZM4607.64 875.173L4394.85 723.09V821.863L4600.02 948.712L4607.64 875.173ZM1731.56 2291.67L1440.19 2164.93L1341.35 2453.75L1640.4 2565.26L1731.56 2291.67ZM3182.34 2161.02L3130.34 2339.77L3317.87 2512.18L3364.75 2346.07L3182.34 2161.02ZM4379.62 1361.78L4535.41 1369.39L4536.72 1297.06L4374.51 1264.09L4379.62 1361.78ZM3731.7 758.661C2982.15 722.212 1640.39 1432.59 1447.73 4282.44H3285.66C2873.53 3214.82 2921.34 2409.26 3204.72 1863.37C3616.8 1069.44 4230.15 1016.91 4802.8 1351.53C4823.04 1303.45 4850.89 1242.53 4850.89 1242.53C4524.09 928.365 4218.17 782.27 3731.7 758.661ZM3786.75 1350.23L3855.08 1513.62L3981.79 1445.31L3934.92 1294.53L3786.75 1350.23ZM3371.08 1721.41L3510.44 1912.88L3596.6 1787.45L3474.97 1598.6L3371.08 1721.41ZM3583.95 3948.93L3497.8 3739.84L3179.73 3680.33L3263.49 3920.95L3583.95 3948.93Z" fill="#F7DEE1"/>
<path d="M1912.03 1384.59L2131.84 1292.77L2033.16 1219.66L1912.03 1384.59Z" fill="white"/>
<path d="M2795.86 930.977L2854.22 893.336L2648.41 770.627L2795.86 930.977Z" fill="white"/>
<path d="M1091.36 3334.95L1008.89 3646.62L1204.44 3709.61L1354.89 3726.81L1432.62 3395.54L1091.36 3334.95Z" fill="#D7C4C9"/>
<path d="M1551.73 3412.73C1529.6 3537.3 1510.06 3667.3 1493.31 3802.74L1745.09 3883.89L1551.73 3412.73Z" fill="#D7C4C9"/>
<path d="M1008.9 3646.62L998.455 3686.22L1204.44 3709.61L1008.9 3646.62Z" fill="#C2C3C6"/>
<path d="M1745.1 3883.86L1493.31 3802.71C1474.55 3955.55 1459.05 4115.25 1447.73 4282.45H1743.91L1745.1 3883.86Z" fill="#C2C3C6"/>
<path d="M1743.9 4282.47H2713.89L1745.09 3883.88L1743.9 4282.47Z" fill="#DDC3C8"/>
<path d="M4452.08 763.985L4394.84 723.082V821.855L4532.59 907.041L4452.08 763.985ZM4606 1037.36C4467.74 939.559 4324.13 869.61 4160.62 823.82L4164.23 1157.36C4364.82 1157.58 4571.63 1222.09 4773.75 1335.23L4606 1037.36ZM4379.62 1361.77L4535.41 1369.38L4536.72 1297.05L4374.51 1264.08L4379.62 1361.77Z" fill="url(#paint11_linear)"/>
<path d="M4160.63 823.835C4032.37 787.727 3891.94 766.293 3731.71 758.668C3511.51 748.003 3239.99 801.851 2961.66 955.453L3724.75 1273.55C3864.84 1193.81 4012.8 1157.15 4164.24 1157.36L4160.63 823.835ZM3751.04 674.91L3702.96 515.438L3685.56 513.918L3503.14 622.477L3523.05 669.918L3751.04 674.91ZM3851.02 1325.99L3958.63 1370.93L3934.9 1294.56L3851.02 1325.99Z" fill="url(#paint12_linear)"/>
<path d="M1761.96 4924.55V4788.98C1761.96 4716.65 1689.83 4586.76 1557.99 4586.76C1426.24 4586.76 1128.51 4586.76 1128.51 4586.76V5399.29H1348.14V5162.68L1525.53 5399.29H1789.05L1582.91 5125.47C1582.9 5125.46 1761.96 5090.11 1761.96 4924.55ZM1545.81 4965H1346.4V4801.05H1545.81V4965ZM2398.9 4583.17H2199.5C2099.85 4583.17 1995.14 4674.56 1995.14 4794.43C1995.14 4914.31 1995.14 5395.69 1995.14 5395.69H2211.29V5237.08H2405.58V5395.69H2625.27C2625.27 5395.69 2625.27 4910.95 2625.27 4792.8C2625.28 4674.54 2518.85 4583.17 2398.9 4583.17ZM2405.6 5019.07H2211.3V4801.17H2405.6V5019.07ZM4416.38 4876.35C4320.02 4876.35 4204.79 4876.35 4204.79 4876.35V4787.67H4575.98V4586.21C4575.98 4586.21 4333.93 4586.21 4203.48 4586.21C4072.95 4586.21 3982.98 4689.99 3982.98 4793.99V4880.14C3982.98 5005.57 4095.8 5093.03 4201.01 5093.03C4306.08 5093.03 4397.34 5093.03 4397.34 5093.03V5191.82H3997.03V5396.99C3997.03 5396.99 4274.41 5396.99 4392.22 5396.99C4510.06 5396.99 4616.56 5308.32 4616.56 5200.74V5093.03C4616.56 4962.4 4512.68 4876.35 4416.38 4876.35ZM3530.65 4584.91H3312.86V5398.31H3856.37V5180.29H3530.65V4584.91ZM2859.22 5398.31H3077.13V4584.91H2859.22V5398.31Z" fill="white"/>
<defs>
<linearGradient id="paint0_linear" x1="819.395" y1="2917.57" x2="5015.58" y2="2917.57" gradientUnits="userSpaceOnUse">
<stop offset="0.0798" stop-color="#AA2237"/>
<stop offset="0.9816" stop-color="#B4313D"/>
</linearGradient>
<linearGradient id="paint1_linear" x1="1738.3" y1="839.623" x2="2951.26" y2="839.623" gradientUnits="userSpaceOnUse">
<stop offset="0.0368" stop-color="#B83A41"/>
<stop offset="0.8957" stop-color="#BF4A50"/>
</linearGradient>
<linearGradient id="paint2_linear" x1="1289.02" y1="3883.89" x2="1289.02" y2="2657.44" gradientUnits="userSpaceOnUse">
<stop offset="0.0368" stop-color="#A92237"/>
<stop offset="0.9387" stop-color="#972235"/>
</linearGradient>
<linearGradient id="paint3_linear" x1="2344.54" y1="5603.57" x2="2344.54" y2="3883.87" gradientUnits="userSpaceOnUse">
<stop offset="0.0368" stop-color="#BC4245"/>
<stop offset="0.9387" stop-color="#A42136"/>
</linearGradient>
<linearGradient id="paint4_linear" x1="3559.37" y1="1457.97" x2="3559.37" y2="234.889" gradientUnits="userSpaceOnUse">
<stop offset="0.0368" stop-color="#CC5057"/>
<stop offset="0.8957" stop-color="#B73840"/>
</linearGradient>
<linearGradient id="paint5_linear" x1="4071.72" y1="1292.11" x2="4591.21" y2="992.174" gradientUnits="userSpaceOnUse">
<stop offset="0.0798" stop-color="#D4575F"/>
<stop offset="0.9448" stop-color="#B63540"/>
</linearGradient>
<linearGradient id="paint6_linear" x1="4167.48" y1="2064.8" x2="5012.33" y2="2064.8" gradientUnits="userSpaceOnUse">
<stop stop-color="#C04B51"/>
<stop offset="1" stop-color="#B83A41"/>
</linearGradient>
<linearGradient id="paint7_linear" x1="4164.23" y1="3275.17" x2="5010.59" y2="3275.17" gradientUnits="userSpaceOnUse">
<stop stop-color="#BA4044"/>
<stop offset="1" stop-color="#B4303C"/>
</linearGradient>
<linearGradient id="paint8_linear" x1="3986.22" y1="4367.74" x2="4636.44" y2="4604.41" gradientUnits="userSpaceOnUse">
<stop stop-color="#972136"/>
<stop offset="1" stop-color="#9F2236"/>
</linearGradient>
<linearGradient id="paint9_linear" x1="3429.36" y1="3976.56" x2="4536.67" y2="5296.2" gradientUnits="userSpaceOnUse">
<stop offset="0.0368" stop-color="#B22C3A"/>
<stop offset="0.9387" stop-color="#C04D53"/>
</linearGradient>
<linearGradient id="paint10_linear" x1="2957.31" y1="5603.8" x2="2957.31" y2="4378.87" gradientUnits="userSpaceOnUse">
<stop offset="0.0368" stop-color="#B22C3A"/>
<stop offset="0.9387" stop-color="#9B2135"/>
</linearGradient>
<linearGradient id="paint11_linear" x1="4160.62" y1="1046.23" x2="4773.76" y2="1046.23" gradientUnits="userSpaceOnUse">
<stop offset="0.0368" stop-color="white"/>
<stop offset="0.7423" stop-color="#F4E6D9"/>
</linearGradient>
<linearGradient id="paint12_linear" x1="3149.59" y1="629.95" x2="4138.95" y2="1201.16" gradientUnits="userSpaceOnUse">
<stop offset="0.0368" stop-color="white"/>
<stop offset="0.8957" stop-color="#F4E6D9"/>
</linearGradient>
</defs>
</svg>
