<svg width="9280" height="9280" viewBox="0 0 9280 9280" fill="none" xmlns="http://www.w3.org/2000/svg">
<path fill-rule="evenodd" clip-rule="evenodd" d="M3720.77 5486.95L4604.46 2012.63C4604.46 2004.56 4608.5 2000.53 4616.57 2000.53C4624.64 2000.53 4628.68 2004.56 4628.68 2012.63L5512.37 5486.95C5514.54 5493.48 5515.55 5500.01 5515.38 5506.54H5515.42L5945.08 7224.4H5944.9C5946.29 7230.05 5947.38 7236 5948.16 7242.26L6238.69 8392.3C6287.11 8585.99 6392.03 8747.4 6553.43 8876.52C6714.84 8997.58 6896.42 9058.11 7098.17 9058.11H7909.23C8078.71 9058.11 8211.87 8989.51 8308.71 8852.31C8413.62 8715.11 8437.83 8565.81 8381.34 8404.4L5948.16 874.703C5891.67 681.013 5778.69 523.64 5609.21 402.584C5439.74 281.528 5250.08 221 5040.26 221H4241.3C4039.55 221 3853.93 281.528 3684.46 402.584C3523.05 523.64 3410.07 681.013 3345.51 874.703L900.219 8404.4C843.727 8565.81 863.903 8715.11 960.746 8852.31C1065.66 8989.51 1202.85 9058.11 1372.33 9058.11H2134.97C2336.72 9058.11 2518.3 8997.58 2679.71 8876.52C2841.11 8747.4 2946.03 8585.99 2994.45 8392.3L3284.98 7242.26C3286.55 7235.97 3288.35 7229.99 3290.39 7224.31L3716.99 5505.05C3717.5 5499.02 3718.76 5492.98 3720.77 5486.95Z" fill="#1F2937"/>
</svg>
